<?xml version="1.0" standalone="no"?>
<!DOCTYPE svg PUBLIC "-//W3C//DTD SVG 20010904//EN"
 "http://www.w3.org/TR/2001/REC-SVG-20010904/DTD/svg10.dtd">
<svg version="1.0" xmlns="http://www.w3.org/2000/svg"
 width="476.000000pt" height="200.000000pt" viewBox="0 0 476.000000 200.000000"
 preserveAspectRatio="xMidYMid meet">

<g transform="translate(0.000000,200.000000) scale(0.100000,-0.100000)"
fill="#000000" stroke="none">
<path d="M2012 1794 c-74 -38 -112 -143 -119 -329 -10 -267 62 -415 196 -402
113 12 171 137 171 369 0 183 -38 308 -106 353 -39 25 -102 29 -142 9z m105
-66 c15 -28 18 -65 21 -233 4 -227 -7 -338 -36 -368 -25 -24 -54 -16 -73 21
-17 34 -25 396 -10 502 15 108 62 145 98 78z"/>
<path d="M2371 1773 c-46 -46 -66 -106 -56 -172 10 -64 33 -104 111 -191 75
-84 103 -137 104 -193 0 -43 -22 -92 -45 -101 -56 -21 -97 17 -114 104 -10 49
-16 60 -32 60 -18 0 -19 -8 -19 -104 l0 -104 43 -2 c23 -1 65 -2 92 -3 63 -2
104 25 135 89 19 39 22 57 18 122 -6 93 -26 132 -126 245 -81 91 -100 137 -83
190 20 60 75 62 103 4 8 -17 19 -47 22 -65 5 -22 13 -32 27 -32 17 0 19 8 19
90 l0 90 -37 -1 c-21 -1 -57 2 -80 6 -41 7 -45 6 -82 -32z"/>
<path d="M1863 954 c-3 -8 -1 -20 4 -25 5 -5 164 -8 399 -7 381 3 389 3 389
23 0 20 -8 20 -393 23 -350 2 -393 1 -399 -14z"/>
<path d="M242 783 c-7 -3 -22 -24 -34 -46 -17 -34 -21 -60 -21 -132 -1 -136
37 -199 107 -181 37 9 57 46 69 129 22 155 -36 264 -121 230z m61 -63 c10 -37
4 -223 -8 -252 -12 -29 -33 -20 -46 19 -12 37 -7 242 7 264 12 20 38 3 47 -31z"/>
<path d="M398 638 c3 -107 8 -161 18 -180 26 -50 102 -50 128 0 10 19 15 73
18 180 l3 152 -25 0 -25 0 3 -164 c3 -161 3 -164 -18 -171 -12 -4 -26 -3 -32
3 -6 6 -8 73 -6 171 l3 161 -35 0 -35 0 3 -152z"/>
<path d="M595 605 l0 -185 36 0 35 0 -4 86 c-5 93 8 109 28 34 33 -129 29
-120 60 -120 29 0 40 13 21 25 -5 3 -15 30 -21 60 -6 29 -20 65 -31 79 -19 24
-19 25 -1 30 36 12 55 93 32 136 -12 23 -61 40 -114 40 l-41 0 0 -185z m93
147 c22 -14 27 -78 8 -107 -27 -41 -36 -29 -36 45 0 70 3 77 28 62z"/>
<path d="M901 773 c-14 -11 -24 -33 -27 -58 -6 -42 -6 -42 74 -146 33 -43 41
-86 20 -107 -26 -26 -68 1 -68 44 0 15 -6 24 -15 24 -11 0 -15 -13 -15 -53 l0
-54 51 -1 c65 -1 99 30 99 90 0 47 -15 78 -69 143 -43 52 -49 73 -29 93 21 21
36 13 49 -23 18 -48 29 -44 29 9 0 36 -3 45 -17 45 -10 -1 -27 2 -39 6 -13 4
-28 0 -43 -12z"/>
<path d="M1045 605 l0 -185 80 0 81 0 -2 33 c-3 54 -4 57 -12 57 -4 0 -13 -13
-19 -30 -9 -23 -18 -30 -37 -30 -26 0 -26 1 -26 75 0 48 4 75 11 75 6 0 13 -9
16 -20 10 -37 26 -15 27 38 2 35 -2 52 -10 52 -6 0 -14 -9 -17 -20 -3 -11 -10
-20 -16 -20 -7 0 -11 25 -11 66 l0 65 28 -3 c19 -2 28 -9 30 -25 2 -13 8 -23
13 -23 5 0 9 10 10 23 0 12 2 30 4 40 3 15 -6 17 -73 17 l-77 0 0 -185z"/>
<path d="M1272 767 c-11 -12 -25 -35 -31 -50 -16 -41 -14 -191 3 -232 18 -43
58 -69 91 -61 24 6 55 51 55 81 0 25 -16 17 -31 -17 -8 -18 -22 -34 -31 -36
-31 -6 -42 37 -42 161 0 99 3 120 18 135 16 16 18 16 37 -7 10 -13 19 -29 19
-37 0 -8 5 -14 10 -14 6 0 10 22 10 48 l0 48 -44 2 c-33 1 -48 -4 -64 -21z"/>
<path d="M1415 605 l0 -185 36 0 35 0 -4 86 c-5 93 8 109 28 34 33 -129 29
-120 60 -120 29 0 40 13 21 25 -5 3 -15 30 -21 60 -6 29 -20 65 -30 78 -19 24
-19 24 5 37 25 13 35 37 35 87 0 52 -45 83 -123 83 l-42 0 0 -185z m93 147
c22 -14 27 -78 8 -107 -27 -41 -36 -29 -36 45 0 70 3 77 28 62z"/>
<path d="M1615 605 l0 -185 78 0 c82 0 79 -2 81 57 1 37 -17 39 -31 3 -9 -23
-18 -30 -37 -30 -26 0 -26 1 -26 75 0 48 4 75 11 75 6 0 13 -9 16 -20 3 -11 9
-20 13 -20 9 0 19 79 12 98 -6 18 -19 15 -25 -8 -3 -11 -10 -20 -16 -20 -7 0
-11 25 -11 66 l0 65 28 -3 c19 -2 28 -9 30 -25 2 -13 10 -23 18 -23 9 0 12 8
10 23 -3 12 -5 30 -5 40 -1 14 -11 17 -73 17 l-73 0 0 -185z"/>
<path d="M1790 750 c0 -45 14 -54 24 -15 4 14 11 25 17 25 7 0 10 -54 7 -170
l-3 -170 35 0 35 0 -3 171 c-3 140 -1 170 10 167 7 -3 14 -14 16 -26 2 -12 8
-22 13 -22 5 0 9 1 9 3 1 1 3 19 6 40 l6 37 -86 0 -86 0 0 -40z"/>
<path d="M2055 605 l0 -185 50 0 c64 0 111 27 120 69 10 47 -3 89 -34 107
l-27 16 28 28 c28 28 36 68 22 105 -10 25 -59 45 -111 45 l-48 0 0 -185z m89
149 c24 -9 31 -69 12 -99 -26 -40 -36 -29 -36 40 0 36 2 65 4 65 2 0 11 -3 20
-6z m7 -164 c15 -9 19 -22 19 -63 0 -52 -12 -77 -37 -77 -10 0 -13 20 -13 75
0 41 3 75 6 75 3 0 14 -5 25 -10z"/>
<path d="M2255 605 l0 -185 80 0 80 0 0 45 c0 52 -15 59 -32 15 -9 -23 -18
-30 -37 -30 -26 0 -26 1 -26 75 0 48 4 75 11 75 6 0 13 -9 16 -20 3 -11 9 -20
13 -20 9 0 19 79 12 98 -6 18 -19 15 -25 -8 -3 -11 -10 -20 -16 -20 -7 0 -11
25 -11 66 l0 65 28 -3 c19 -2 28 -9 30 -25 4 -26 21 -31 23 -8 5 64 10 60 -71
63 l-75 3 0 -186z"/>
<path d="M2512 776 c-12 -7 -20 -14 -17 -17 4 -5 -44 -257 -61 -316 -6 -20 -3
-23 25 -23 33 0 39 8 20 27 -7 7 -9 23 -5 37 5 22 12 26 43 26 l36 0 -6 -45
-7 -45 39 0 c47 0 54 6 37 34 -8 11 -26 86 -41 166 -15 80 -31 150 -34 157 -5
9 -11 8 -29 -1z m23 -213 c5 -19 1 -23 -20 -23 -29 0 -29 1 -13 72 l11 53 9
-40 c4 -22 10 -50 13 -62z"/>
<path d="M2648 638 c3 -107 8 -161 18 -180 26 -50 102 -50 128 0 10 19 15 73
18 180 l3 152 -25 0 -25 0 3 -164 c3 -161 3 -164 -18 -171 -12 -4 -26 -3 -32
3 -6 6 -8 73 -6 171 l3 161 -35 0 -35 0 3 -152z"/>
<path d="M2840 750 c0 -42 16 -56 22 -18 2 12 9 23 16 26 11 3 13 -27 10 -167
l-3 -171 35 0 35 0 -3 171 c-3 140 -1 170 10 167 7 -3 14 -14 16 -26 2 -12 10
-22 18 -22 10 0 13 8 9 31 -4 22 -2 30 7 27 7 -2 26 -42 41 -89 24 -72 28 -96
24 -171 l-3 -88 38 0 c26 0 38 4 38 14 0 8 -4 17 -9 21 -25 15 17 265 50 299
19 20 9 36 -22 36 -28 0 -31 -2 -25 -25 6 -25 -13 -115 -25 -115 -11 0 -37
104 -28 114 20 22 4 25 -121 25 l-130 1 0 -40z"/>
<path d="M3331 773 c-14 -11 -24 -33 -27 -58 -6 -42 -6 -42 74 -146 33 -43 41
-86 20 -107 -26 -26 -68 1 -68 44 0 15 -6 24 -15 24 -11 0 -15 -13 -15 -53 l0
-54 50 -1 c65 -1 90 19 97 79 6 52 -10 89 -61 147 -40 45 -52 78 -36 97 20 24
38 17 51 -20 18 -48 29 -44 29 9 0 36 -3 45 -17 45 -10 -1 -27 2 -39 6 -13 4
-28 0 -43 -12z"/>
<path d="M3522 767 c-11 -12 -25 -35 -31 -50 -16 -41 -14 -191 3 -231 15 -36
50 -66 77 -66 27 0 58 33 65 68 8 42 -8 42 -27 0 -19 -45 -43 -47 -60 -6 -21
51 -18 244 5 266 16 16 18 16 37 -7 10 -13 19 -29 19 -37 0 -8 5 -14 10 -14 6
0 10 22 10 48 l0 48 -44 2 c-33 1 -48 -4 -64 -21z"/>
<path d="M3665 605 l0 -185 36 0 35 0 -4 90 -4 90 27 0 27 0 -4 -90 -4 -90 35
0 36 0 0 185 0 185 -36 0 -36 0 5 -80 5 -80 -28 0 -28 0 5 80 5 80 -36 0 -36
0 0 -185z"/>
<path d="M3932 783 c-7 -3 -22 -24 -34 -46 -17 -34 -21 -60 -21 -132 -1 -103
17 -158 57 -176 63 -29 110 22 121 131 15 152 -42 256 -123 223z m61 -63 c10
-37 4 -223 -8 -253 -12 -28 -38 -16 -48 23 -10 37 -3 222 9 253 10 28 37 15
47 -23z"/>
<path d="M4142 783 c-7 -3 -22 -24 -34 -46 -17 -34 -21 -60 -21 -132 -1 -136
37 -199 107 -181 37 9 57 46 69 129 22 155 -36 264 -121 230z m61 -63 c10 -37
4 -223 -8 -252 -12 -29 -33 -20 -46 19 -12 38 -8 219 7 256 10 28 37 15 47
-23z"/>
<path d="M4295 605 l0 -185 73 0 72 0 0 45 c0 52 -11 58 -27 15 -8 -21 -18
-30 -33 -30 -22 0 -22 1 -18 170 l3 170 -35 0 -35 0 0 -185z"/>
</g>
</svg>
